<?xml version="1.0" encoding="UTF-8"?>
<svg version="1.1" xmlns="http://www.w3.org/2000/svg" width="270" height="342">
<path d="M0 0 C0.495 0.99 0.495 0.99 1 2 C0.44014404 2.02505615 -0.11971191 2.0501123 -0.6965332 2.07592773 C-3.23541305 2.19203745 -5.77393553 2.3146958 -8.3125 2.4375 C-9.63411133 2.49647461 -9.63411133 2.49647461 -10.98242188 2.55664062 C-11.82998047 2.59853516 -12.67753906 2.64042969 -13.55078125 2.68359375 C-14.33106689 2.72025146 -15.11135254 2.75690918 -15.9152832 2.79467773 C-18.19329101 2.94125263 -18.19329101 2.94125263 -21 4 C-17.37 4 -13.74 4 -10 4 C-13.36605674 7.36605674 -18.06969142 7.58700666 -22.625 8.5625 C-23.66229248 8.789375 -24.69958496 9.01625 -25.76831055 9.25 C-31.81638561 10.51451674 -37.6394588 11.34784222 -43.8125 11.5 C-50.57022491 11.71708754 -55.35008819 13.31940842 -61 17 C-59.94941406 16.72285156 -58.89882813 16.44570313 -57.81640625 16.16015625 C-50.54765599 14.27374249 -43.51684956 12.53691783 -36 12 C-37 15 -37 15 -40.31640625 16.83203125 C-41.7284601 17.49923969 -43.14404584 18.15900863 -44.5625 18.8125 C-52.74450048 22.74742426 -59.25473231 26.05226102 -64 34 C-65.49570818 35.7921054 -67.01924828 37.5611694 -68.5625 39.3125 C-74.57476647 46.34538101 -79.35589311 54.01794129 -84 62 C-84.86625 63.45986328 -84.86625 63.45986328 -85.75 64.94921875 C-94.86460757 81.58812476 -98.3785496 101.67997083 -98.25 120.4375 C-98.25773437 121.56220703 -98.26546875 122.68691406 -98.2734375 123.84570312 C-98.53043529 137.53152385 -98.53043529 137.53152385 -94 150 C-93.90282667 152.1800626 -94.06453071 154.27793464 -94.22265625 156.453125 C-93.91485203 159.97397325 -92.45242067 162.83014446 -91 166 C-86.61249658 176.5068187 -82.50686704 187.13235386 -78.5625 197.8125 C-78.22065674 198.72459229 -77.87881348 199.63668457 -77.52661133 200.57641602 C-75.10325806 207.21552903 -74 212.9094018 -74 220 C-73.40960938 220.08636719 -72.81921875 220.17273438 -72.2109375 220.26171875 C-65.90755129 222.36655973 -62.3331044 231.03439098 -59.5625 236.5625 C-58.69815844 238.37016994 -57.84024643 240.18100498 -57 242 C-57.66 242 -58.32 242 -59 242 C-60.7265625 239.8125 -60.7265625 239.8125 -62.625 237 C-63.25664063 236.071875 -63.88828125 235.14375 -64.5390625 234.1875 C-65.02117187 233.465625 -65.50328125 232.74375 -66 232 C-60.84461036 243.32986793 -51.6397569 252.65115401 -42.78515625 261.21484375 C-40.95453285 263.04546715 -39.29375561 264.95899857 -37.625 266.9375 C-27.32836083 278.83429256 -14.07843753 289.04304256 0 296 C0.61746094 296.3609375 1.23492187 296.721875 1.87109375 297.09375 C4.11067781 298.16174766 4.11067781 298.16174766 7.19140625 298.40234375 C11.81466484 299.12783971 15.66493181 300.71361659 19.9375 302.5625 C21.10635742 303.0565332 21.10635742 303.0565332 22.29882812 303.56054688 C24.20235303 304.36633349 26.10163025 305.18214217 28 306 C28 306.66 28 307.32 28 308 C22.555 306.515 22.555 306.515 17 305 C23.29173831 308.24228058 29.6703386 310.95976628 36.25976562 313.53125 C41.89333731 315.78667463 41.89333731 315.78667463 43 318 C42.34 318.33 41.68 318.66 41 319 C42.32 319.33 43.64 319.66 45 320 C45 319.34 45 318.68 45 318 C46.09763672 317.95101563 47.19527344 317.90203125 48.32617188 317.8515625 C52.48106712 317.65645389 56.63213234 317.41357634 60.78369141 317.15771484 C62.56523007 317.0542748 64.34752756 316.96302785 66.13037109 316.88525391 C79.24949792 316.30136037 88.70417706 313.68117797 100 307 C101.78921538 306.05783015 103.58027988 305.11914123 105.375 304.1875 C111.29412771 300.5736108 115.59442402 295.26794404 120 290 C120.66 290.33 121.32 290.66 122 291 C119.69 293.97 117.38 296.94 115 300 C121.26403815 296.22315347 124.93510396 293.66281749 128 287 C127.34 286.67 126.68 286.34 126 286 C126.52665008 281.91490346 127.6383789 279.91184114 130.375 276.875 C134.39034694 271.98567611 135.7957773 267.13580137 137 261 C136.61070312 261.77601563 136.22140625 262.55203125 135.8203125 263.3515625 C132.50119205 269.76037111 128.94024274 275.80513276 124.75 281.6875 C124.32605957 282.2870752 123.90211914 282.88665039 123.46533203 283.50439453 C121.46017331 286.26516641 119.87047244 288.08635171 117 290 C117.51297406 284.96979169 119.28950317 281.3435183 121.8125 277.0625 C125.45159367 270.62962029 127.48120508 264.55005164 129.015625 257.33984375 C130 254 130 254 131.984375 251.25390625 C137.25301977 242.74851654 136.67211727 230.75725753 137.43261719 220.96630859 C137.62467096 218.50421822 137.82734009 216.043165 138.03125 213.58203125 C139.68559887 197.13509605 139.68559887 197.13509605 136.8125 181.0625 C136.34355233 179.59375192 135.87888143 178.1236331 135.41796875 176.65234375 C135.17997559 175.89421387 134.94198242 175.13608398 134.69677734 174.35498047 C133.74672278 171.14396915 132.98173694 167.90018163 132.21704102 164.64086914 C124.09806559 130.13940863 107.08268886 96.2839096 80.07177734 72.83935547 C77.80000603 70.83618282 76.04024329 69.06900354 74.5078125 66.44140625 C72.55661806 63.28208883 70.32635649 61.81620958 67.25 59.75 C66.67709229 59.36432861 66.10418457 58.97865723 65.51391602 58.58129883 C59.53879899 54.60515353 53.38084273 50.94090734 47.19677734 47.30224609 C44.69094126 45.81679048 42.19853553 44.31014803 39.70703125 42.80078125 C38.80283447 42.25397705 37.8986377 41.70717285 36.96704102 41.14379883 C35.18127504 40.06341763 33.39657322 38.98127518 31.61303711 37.8972168 C30.79714111 37.40519775 29.98124512 36.91317871 29.140625 36.40625 C28.05056152 35.74592773 28.05056152 35.74592773 26.93847656 35.07226562 C23.19479369 33.00145263 19.89198243 32.79581782 15.6875 32.5625 C10.61484923 32.23726283 5.64924823 31.70712594 0.625 30.9375 C-19.17980889 28.04244488 -37.50987306 34.12514444 -53.55078125 45.8671875 C-56.50227102 48.13611584 -59.36604983 50.36604983 -62 53 C-64.0625 52.75 -64.0625 52.75 -66 52 C-66.33 51.34 -66.66 50.68 -67 50 C-66.27425781 49.75507812 -65.54851562 49.51015625 -64.80078125 49.2578125 C-61.68712063 47.85948793 -59.68599245 46.18703779 -57.1875 43.875 C-56.39730469 43.15054688 -55.60710938 42.42609375 -54.79296875 41.6796875 C-54.20128906 41.12539063 -53.60960937 40.57109375 -53 40 C-58.68748885 41.25124755 -61.72847508 43.04102568 -66 47 C-66.99 46.505 -66.99 46.505 -68 46 C-56.70693551 30.11912805 -40.74880179 23.25978087 -22 20 C-20.68 20 -19.36 20 -18 20 C-18.18359375 21.890625 -18.18359375 21.890625 -19 24 C-21.28515625 25.046875 -21.28515625 25.046875 -24.0625 25.75 C-25.44115234 26.11351562 -25.44115234 26.11351562 -26.84765625 26.484375 C-27.91306641 26.73960938 -27.91306641 26.73960938 -29 27 C-28.34 26.855625 -27.68 26.71125 -27 26.5625 C2.76583918 20.98140515 31.73841764 26.51634923 57 43 C67.77328682 50.423075 80.06072211 59.76509111 87.73828125 70.41015625 C88.15464844 70.93480469 88.57101563 71.45945312 89 72 C89.99 72 90.98 72 92 72 C95.39542086 72.54764853 97.31319254 73.90776788 100 76 C97.48104761 73.31073183 94.95949008 70.62391938 92.4375 67.9375 C91.73302734 67.18533203 91.02855469 66.43316406 90.30273438 65.65820312 C65.29472198 39.03677057 31.84290804 18.19804394 -5.4296875 16.39453125 C-10.79352679 16.10323661 -10.79352679 16.10323661 -13 15 C-13 14.34 -13 13.68 -13 13 C-7.06975197 12.02959578 -1.93609666 12.10683731 4 13 C4 12.34 4 11.68 4 11 C9.57283122 11.50773325 13.88599844 12.54813885 19.0625 14.8125 C24.27177911 17.0373306 29.29282232 18.65255479 34.8125 19.9375 C40.61955657 21.4103042 44.6029048 23.30362986 49.30078125 26.96875 C51.97698927 28.98268368 54.71150611 30.68436023 57.58178711 32.40014648 C67.10392108 38.10842061 75.58436301 44.78057734 84 52 C84.98355469 52.84046875 85.96710938 53.6809375 86.98046875 54.546875 C92.10139621 59.0402758 96.69146672 63.72828164 101 69 C101.41975098 69.50740723 101.83950195 70.01481445 102.27197266 70.53759766 C132 106.55245652 132 106.55245652 132 120 C132.75902218 121.92600388 132.75902218 121.92600388 133.828125 123.95703125 C134.21403809 124.73272461 134.59995117 125.50841797 134.99755859 126.30761719 C135.41086426 127.13422852 135.82416992 127.96083984 136.25 128.8125 C140.74350488 138.06496361 143.86345819 146.94864005 145.79296875 157.08984375 C145.98850342 158.11513184 145.98850342 158.11513184 146.18798828 159.16113281 C146.54199802 161.07657014 146.86759019 162.99719645 147.19140625 164.91796875 C147.68922535 167.96257869 147.68922535 167.96257869 149.46606445 169.32275391 C151.62717057 171.68576505 151.79972602 173.7832244 152.3515625 176.91796875 C152.56296875 178.09037109 152.774375 179.26277344 152.9921875 180.47070312 C153.20101563 181.69724609 153.40984375 182.92378906 153.625 184.1875 C153.8415625 185.39470703 154.058125 186.60191406 154.28125 187.84570312 C155.84247858 196.65893485 157.09780922 205.32498089 157.38671875 214.26953125 C157.41224319 215.03118088 157.43776764 215.79283051 157.46406555 216.57756042 C157.51570651 218.17834813 157.56517286 219.77920735 157.61254883 221.38012695 C157.68699931 223.79625134 157.77790926 226.21141209 157.86914062 228.62695312 C158.14426958 237.0007663 158.07982016 244.80639169 156 253 C155.01 253.33 154.02 253.66 153 254 C151.92160191 255.88001708 151.92160191 255.88001708 151.125 258.25 C150.78210938 259.15878906 150.43921875 260.06757813 150.0859375 261.00390625 C149.35864103 263.01051198 148.63471123 265.01834099 147.9140625 267.02734375 C143.6268084 278.66623156 137.81517108 289.36131978 131.2265625 299.8515625 C129.9176677 301.97868143 129.9176677 301.97868143 129.19921875 304.4296875 C127.57731867 307.90594239 125.03788491 310.03908728 122.1875 312.5 C121.13833376 313.42596377 120.09014748 314.35303914 119.04296875 315.28125 C118.53040527 315.73371094 118.0178418 316.18617188 117.48974609 316.65234375 C114.56396142 319.29907128 111.79551796 322.09255852 109.1953125 325.05859375 C106.08578647 327.80847709 102.63354572 329.35242938 98.875 331.0625 C97.72994995 331.58855835 97.72994995 331.58855835 96.56176758 332.12524414 C82.18659728 338.61779797 69.24686419 339.41736363 53.5625 338.25 C52.32306641 338.17523438 51.08363281 338.10046875 49.80664062 338.0234375 C48.61361328 337.93835938 47.42058594 337.85328125 46.19140625 337.765625 C45.12092041 337.69118164 44.05043457 337.61673828 42.94750977 337.54003906 C39.69539039 336.94418981 37.76128694 335.77104801 35 334 C32.96830603 333.31385635 32.96830603 333.31385635 30.90234375 332.921875 C19.58066512 330.28397136 9.61119574 326.1537932 -0.5625 320.625 C-1.71435791 320.00077148 -2.86621582 319.37654297 -4.05297852 318.73339844 C-13.98913325 313.21514203 -23.88074558 307.45823638 -32.125 299.5625 C-35.75743603 296.10941401 -39.43942905 292.75704764 -43.25 289.5 C-47.62150293 285.59938243 -50.9290847 281.31945597 -54.2109375 276.48046875 C-55.91725193 273.97294197 -55.91725193 273.97294197 -58.02734375 271.984375 C-60.16994611 269.82904431 -61.62695835 267.6660772 -63.1875 265.0625 C-63.69667969 264.22847656 -64.20585938 263.39445312 -64.73046875 262.53515625 C-66 260 -66 260 -66.48828125 257.45703125 C-67.09822042 254.52839204 -68.1986026 253.00184379 -70 250.625 C-85.19465346 229.57439491 -98.07275099 204.84708913 -106.0625 180.125 C-106.27898193 179.46443604 -106.49546387 178.80387207 -106.71850586 178.12329102 C-107.73959068 174.76176188 -108.32982095 172.32873421 -107 169 C-106.49166409 170.24663331 -105.99368855 171.49749387 -105.5 172.75 C-105.2215625 173.44609375 -104.943125 174.1421875 -104.65625 174.859375 C-104 177 -104 177 -104 181 C-103.67 180.67 -103.34 180.34 -103 180 C-103.31670672 178.49788346 -103.71529084 177.01297224 -104.14453125 175.5390625 C-104.40854736 174.60126953 -104.67256348 173.66347656 -104.94458008 172.69726562 C-105.23099365 171.68341797 -105.51740723 170.66957031 -105.8125 169.625 C-108.49101345 159.82037002 -110.13083076 150.3066658 -110.7980957 140.17382812 C-110.96803621 138.34414221 -111.2286314 136.52320322 -111.50976562 134.70727539 C-112.00268865 130.97966773 -112.14539853 127.41089167 -112.16796875 123.65234375 C-112.1723848 122.96728256 -112.17680084 122.28222137 -112.18135071 121.57640076 C-112.4592027 61.81376853 -112.4592027 61.81376853 -98 46 C-97.731875 45.236875 -97.46375 44.47375 -97.1875 43.6875 C-95.32089434 39.46307666 -92.1190902 36.36094478 -89 33 C-87.515 33.495 -87.515 33.495 -86 34 C-85.47792969 33.32195313 -84.95585938 32.64390625 -84.41796875 31.9453125 C-76.01431475 21.31932618 -66.79365965 12.79028889 -55 6 C-54.36707031 5.62746094 -53.73414063 5.25492187 -53.08203125 4.87109375 C-51.5 4 -51.5 4 -49 3 C-48.01 3.33 -47.02 3.66 -46 4 C-43.91105965 3.47339282 -43.91105965 3.47339282 -41.8125 2.5625 C-41.09707031 2.27503906 -40.38164063 1.98757812 -39.64453125 1.69140625 C-38.83048828 1.34916016 -38.83048828 1.34916016 -38 1 C-38 1.66 -38 2.32 -38 3 C-37.2678125 2.7834375 -36.535625 2.566875 -35.78125 2.34375 C-23.91493305 -0.70758865 -12.17025976 -0.29248221 0 0 Z M-66 24 C-70.62 28.62 -75.24 33.24 -80 38 C-79.67 38.66 -79.34 39.32 -79 40 C-74.05 35.05 -69.1 30.1 -64 25 C-64.66 24.67 -65.32 24.34 -66 24 Z M-41.82421875 27.77734375 C-42.43910156 28.16019531 -43.05398437 28.54304688 -43.6875 28.9375 C-44.780625 29.618125 -45.87375 30.29875 -47 31 C-46.01 31.495 -46.01 31.495 -45 32 C-42.98074133 31.23399418 -42.98074133 31.23399418 -40.875 30.0625 C-40.15054688 29.68222656 -39.42609375 29.30195313 -38.6796875 28.91015625 C-38.12539062 28.60980469 -37.57109375 28.30945313 -37 28 C-39.82866925 26.68887926 -39.82866925 26.68887926 -41.82421875 27.77734375 Z M-78 30 C-78 33 -78 33 -78 33 Z M-80 33 C-80.66 34.32 -81.32 35.64 -82 37 C-81.01 36.34 -80.02 35.68 -79 35 C-79.33 34.34 -79.66 33.68 -80 33 Z M-83 37 C-83 40 -83 40 -83 40 Z M-85 40 C-85 43 -85 43 -85 43 Z M106 81 C106 84.60573896 106.81707462 85.41336566 109 88.1875 C109.8353125 89.26064453 109.8353125 89.26064453 110.6875 90.35546875 C111.120625 90.89816406 111.55375 91.44085938 112 92 C111.01 91.67 110.02 91.34 109 91 C110.52853935 95.27186525 112.71509481 98.99326863 115.125 102.8125 C115.68380859 103.7087207 115.68380859 103.7087207 116.25390625 104.62304688 C117.1657048 106.08426251 118.08235976 107.54244585 119 109 C119.33 108.34 119.66 107.68 120 107 C119.23399418 104.98074133 119.23399418 104.98074133 118.0625 102.875 C117.49208984 101.78832031 117.49208984 101.78832031 116.91015625 100.6796875 C116.60980469 100.12539062 116.30945313 99.57109375 116 99 C117.32 99.33 118.64 99.66 120 100 C118.47157831 95.37999808 115.96722985 92.02262081 113 88.25 C112.54882812 87.66089844 112.09765625 87.07179688 111.6328125 86.46484375 C109.23430451 83.25547422 109.23430451 83.25547422 106 81 Z M132 141 C132.15855469 141.57363281 132.31710938 142.14726562 132.48046875 142.73828125 C132.99722158 144.61971834 133.50813003 146.50276338 134.015625 148.38671875 C134.71628072 150.95857009 135.43543951 153.52059422 136.171875 156.08203125 C141.852971 176.25092029 145.23591758 197.15481239 145.0625 218.125 C145.05798828 219.176875 145.05347656 220.22875 145.04882812 221.3125 C145.03718011 223.87506221 145.02082553 226.43749877 145 229 C145.33 229 145.66 229 146 229 C146.99 223.39 147.98 217.78 149 212 C149.33 215.3 149.66 218.6 150 222 C150.33 222 150.66 222 151 222 C151.15457401 205.97356017 151.15457401 205.97356017 150 190 C149.67 190 149.34 190 149 190 C149 193.96 149 197.92 149 202 C148.34 202 147.68 202 147 202 C146.97096423 198.89585298 146.9531893 195.79174091 146.9375 192.6875 C146.92912109 191.80642578 146.92074219 190.92535156 146.91210938 190.01757812 C146.90888672 189.17001953 146.90566406 188.32246094 146.90234375 187.44921875 C146.89710693 186.66893311 146.89187012 185.88864746 146.88647461 185.0847168 C147 183 147 183 148 180 C147.14527036 177.94894416 147.14527036 177.94894416 145.8125 175.75 C142.93019126 170.29505206 141.53089282 164.8089132 140.0390625 158.84765625 C138.48108091 153.07843869 136.57091476 147.40416777 134 142 C133.34 141.67 132.68 141.34 132 141 Z M148 183 C148 184.65 148 186.3 148 188 C148.33 188 148.66 188 149 188 C149 186.35 149 184.7 149 183 C148.67 183 148.34 183 148 183 Z M-101 188 C-100 190 -100 190 -100 190 Z M-87 189 C-86 191 -86 191 -86 191 Z M-100 190 C-99 192 -99 192 -99 192 Z M-86 192 C-85.5205537 196.21912747 -84.83374881 198.79663178 -82 202 C-82.60990891 198.44219804 -83.5783681 195.3171411 -85 192 C-85.33 192 -85.66 192 -86 192 Z M-82 202 C-81 204 -81 204 -81 204 Z M-81 204 C-80 206 -80 206 -80 206 Z M142 216 C142 219.96 142 223.92 142 228 C142.33 228 142.66 228 143 228 C143 224.04 143 220.08 143 216 C142.67 216 142.34 216 142 216 Z M144 231 C145 235 145 235 145 235 Z M143 237 C144 241 144 241 144 241 Z M149 237 C150 240 150 240 150 240 Z M139 240 C140 243 140 243 140 243 Z M142 242 C143 246 143 246 143 246 Z M138 244 C139 247 139 247 139 247 Z M154 245 C155 249 155 249 155 249 Z M141 246 C142 250 142 250 142 250 Z M137 247 C138 251 138 251 138 251 Z M140 250 C141 253 141 253 141 253 Z M136 251 C137 254 137 254 137 254 Z M139 253 C140 256 140 256 140 256 Z M135 255 C136 257 136 257 136 257 Z M138 256 C139 259 139 259 139 259 Z " fill="#012A1E" transform="translate(112,0)"/>
<path d="M0 0 C0.66 0.33 1.32 0.66 2 1 C-9.24675276 13.58742528 -23.50125012 18.45196915 -40 20 C-41.66645108 20.02680618 -43.333754 20.03744373 -45 20 C-45.33 19.01 -45.66 18.02 -46 17 C-45.05640625 16.98582031 -44.1128125 16.97164063 -43.140625 16.95703125 C-28.84065844 16.42580759 -10.43685739 10.43685739 0 0 Z " fill="#022B1F" transform="translate(220,295)"/>
<path d="M0 0 C5.7926463 0.61425377 10.94609066 2.15533044 16.4375 4.0625 C17.26443359 4.34416016 18.09136719 4.62582031 18.94335938 4.91601562 C20.96412338 5.60517792 22.98233282 6.3018231 25 7 C25 7.66 25 8.32 25 9 C19.24855005 8.629351 15.12831829 7.77783907 10 5 C7.63208851 4.19483077 5.25325992 3.45699666 2.85546875 2.74609375 C1 2 1 2 0 0 Z " fill="#032B1F" transform="translate(131,6)"/>
<path d="M0 0 C0.66 0 1.32 0 2 0 C0.73525472 7.52190613 -1.02792222 14.95292495 -4 22 C-4.66 22.33 -5.32 22.66 -6 23 C-5.50387003 14.89654389 -2.679915 7.59474067 0 0 Z " fill="#022C1F" transform="translate(24,72)"/>
<path d="M0 0 C6.96050253 0.38669459 11.9394075 2.63438409 18 6 C14.94255252 7.35114472 13.77959635 6.9224598 10.546875 5.78515625 C9.27604557 5.22254947 8.01048782 4.64790949 6.75 4.0625 C6.1003125 3.77181641 5.450625 3.48113281 4.78125 3.18164062 C3.18284785 2.46471025 1.59076946 1.73371051 0 1 C0 0.67 0 0.34 0 0 Z " fill="#022D20" transform="translate(126,20)"/>
<path d="M0 0 C5.65394631 -0.34615998 9.03006806 0.56574762 14 3 C14 3.33 14 3.66 14 4 C8.32723489 4.29341888 5.00932754 4.00559652 0 1 C0 0.67 0 0.34 0 0 Z " fill="#022B1F" transform="translate(116,2)"/>
<path d="M0 0 C-1.14430177 3.87302138 -2.23320098 7.00263439 -5 10 C-5.66 10 -6.32 10 -7 10 C-4.54716981 0 -4.54716981 0 0 0 Z " fill="#022D20" transform="translate(258,287)"/>
<path d="M0 0 C0 0.99 0 1.98 0 3 C-3.35725691 6.25851406 -6.5221629 7.75037104 -11 9 C-7.67149253 5.40521193 -4.01028669 2.77635232 0 0 Z " fill="#022C20" transform="translate(237,313)"/>
<path d="M0 0 C0.33 0.66 0.66 1.32 1 2 C0.01 3.32 -0.98 4.64 -2 6 C-2.66 5.67 -3.32 5.34 -4 5 C-2.68 3.35 -1.36 1.7 0 0 Z " fill="#072E22" transform="translate(248,301)"/>
<path d="M0 0 C-4.625 2.125 -4.625 2.125 -8 1 C-4.93251126 -0.86240388 -3.40254489 -1.2151946 0 0 Z " fill="#1E1E1E" transform="translate(81,16)"/>
<path d="M0 0 C2.31 0 4.62 0 7 0 C7 0.33 7 0.66 7 1 C4.69 1 2.38 1 0 1 C0 0.67 0 0.34 0 0 Z " fill="#550414" transform="translate(164,340)"/>
<path d="M0 0 C0.66 0.33 1.32 0.66 2 1 C1.01 1 0.02 1 -1 1 C-0.67 0.67 -0.34 0.34 0 0 Z " fill="#062F23" transform="translate(52,42)"/>
<path d="" fill="#580818" transform="translate(0,0)"/>
</svg>
